<svg id="visual" viewBox="0 0 960 540" width="960" height="540" xmlns="http://www.w3.org/2000/svg" xmlns:xlink="http://www.w3.org/1999/xlink" version="1.1"><g stroke-width="1" stroke-linejoin="bevel"><path d="M355 322L358 179L210 177Z" fill="#001122" stroke="#001122"></path><path d="M210 177L154 331L355 322Z" fill="#060d1d" stroke="#060d1d"></path><path d="M365 0L202 0L210 177Z" fill="#020102" stroke="#020102"></path><path d="M210 177L0 169L154 331Z" fill="#07030a" stroke="#07030a"></path><path d="M545 0L365 0L358 179Z" fill="#060d1d" stroke="#060d1d"></path><path d="M358 179L365 0L210 177Z" fill="#0a0512" stroke="#0a0512"></path><path d="M202 0L0 169L210 177Z" fill="#050206" stroke="#050206"></path><path d="M0 169L0 371L154 331Z" fill="#050206" stroke="#050206"></path><path d="M157 540L404 540L355 322Z" fill="#080b1a" stroke="#080b1a"></path><path d="M157 540L355 322L154 331Z" fill="#040f20" stroke="#040f20"></path><path d="M355 322L598 143L358 179Z" fill="#07030a" stroke="#07030a"></path><path d="M0 371L157 540L154 331Z" fill="#0a0918" stroke="#0a0918"></path><path d="M598 391L598 143L355 322Z" fill="#09040e" stroke="#09040e"></path><path d="M404 540L598 391L355 322Z" fill="#0a0918" stroke="#0a0918"></path><path d="M598 143L545 0L358 179Z" fill="#060d1d" stroke="#060d1d"></path><path d="M202 0L0 0L0 169Z" fill="#050206" stroke="#050206"></path><path d="M0 371L0 540L157 540Z" fill="#07030a" stroke="#07030a"></path><path d="M404 540L590 540L598 391Z" fill="#060d1d" stroke="#060d1d"></path><path d="M598 391L735 151L598 143Z" fill="#080b1a" stroke="#080b1a"></path><path d="M598 143L735 151L545 0Z" fill="#060d1d" stroke="#060d1d"></path><path d="M771 368L735 151L598 391Z" fill="#0a0715" stroke="#0a0715"></path><path d="M793 540L771 368L598 391Z" fill="#09040e" stroke="#09040e"></path><path d="M960 205L803 0L735 151Z" fill="#001122" stroke="#001122"></path><path d="M735 151L803 0L545 0Z" fill="#040f20" stroke="#040f20"></path><path d="M590 540L793 540L598 391Z" fill="#0a0512" stroke="#0a0512"></path><path d="M771 368L960 205L735 151Z" fill="#07030a" stroke="#07030a"></path><path d="M960 359L960 205L771 368Z" fill="#0a0918" stroke="#0a0918"></path><path d="M793 540L960 359L771 368Z" fill="#001122" stroke="#001122"></path><path d="M960 205L960 0L803 0Z" fill="#0a0918" stroke="#0a0918"></path><path d="M793 540L960 540L960 359Z" fill="#040f20" stroke="#040f20"></path></g></svg>